<?xml version="1.0" encoding="utf-8" standalone="no"?>
<!DOCTYPE svg PUBLIC "-//W3C//DTD SVG 1.1//EN"
  "http://www.w3.org/Graphics/SVG/1.1/DTD/svg11.dtd">
<svg xmlns:xlink="http://www.w3.org/1999/xlink" width="974.702414pt" height="418.6368pt" viewBox="0 0 974.702414 418.6368" xmlns="http://www.w3.org/2000/svg" version="1.1">
 <metadata>
  <rdf:RDF xmlns:dc="http://purl.org/dc/elements/1.1/" xmlns:cc="http://creativecommons.org/ns#" xmlns:rdf="http://www.w3.org/1999/02/22-rdf-syntax-ns#">
   <cc:Work>
    <dc:type rdf:resource="http://purl.org/dc/dcmitype/StillImage"/>
    <dc:date>2026-09-27T10:34:14.855181</dc:date>
    <dc:format>image/svg+xml</dc:format>
    <dc:creator>
     <cc:Agent>
      <dc:title>Matplotlib v3.10.0, https://matplotlib.org/</dc:title>
     </cc:Agent>
    </dc:creator>
   </cc:Work>
  </rdf:RDF>
 </metadata>
 <defs>
  <style type="text/css">*{stroke-linejoin: round; stroke-linecap: butt}</style>
 </defs>
 <g id="figure_1">
  <g id="patch_1">
   <path d="M 0 418.6368 
L 974.702414 418.6368 
L 974.702414 0 
L 0 0 
z
" style="fill: #ffffff"/>
  </g>
  <g id="axes_1">
   <g id="patch_2">
    <path d="M 58.34 345.256 
L 530.518575 345.256 
L 530.518575 91.392 
L 58.34 91.392 
z
" style="fill: #ffffff"/>
   </g>
   <g id="matplotlib.axis_1">
    <g id="xtick_1">
     <g id="line2d_1">
      <defs>
       <path id="md932478447" d="M 0 0 
L 0 3.5 
" style="stroke: #68737d; stroke-width: 0.8"/>
      </defs>
      <g>
       <use xlink:href="#md932478447" x="79.802663" y="345.256" style="fill: #68737d; stroke: #68737d; stroke-width: 0.8"/>
      </g>
     </g>
     <g id="text_1">
      <text style="font-size: 10px; font-family: 'DejaVu Sans'; text-anchor: middle; fill: #68737d" x="79.802663" y="359.854437" transform="rotate(-0 79.802663 359.854437)">2B base</text>
     </g>
    </g>
    <g id="xtick_2">
     <g id="line2d_2">
      <g>
       <use xlink:href="#md932478447" x="294.429288" y="345.256" style="fill: #68737d; stroke: #68737d; stroke-width: 0.8"/>
      </g>
     </g>
     <g id="text_2">
      <text style="font-size: 10px; font-family: 'DejaVu Sans'; text-anchor: middle; fill: #68737d" x="294.429288" y="359.854437" transform="rotate(-0 294.429288 359.854437)">+ SFT</text>
     </g>
    </g>
    <g id="xtick_3">
     <g id="line2d_3">
      <g>
       <use xlink:href="#md932478447" x="509.055913" y="345.256" style="fill: #68737d; stroke: #68737d; stroke-width: 0.8"/>
      </g>
     </g>
     <g id="text_3">
      <text style="font-size: 10px; font-family: 'DejaVu Sans'; text-anchor: middle; fill: #68737d" x="509.055913" y="359.854437" transform="rotate(-0 509.055913 359.854437)">+ 10-step GRPO</text>
     </g>
    </g>
   </g>
   <g id="matplotlib.axis_2">
    <g id="ytick_1">
     <g id="line2d_4">
      <path d="M 58.34 345.256 
L 530.518575 345.256 
" clip-path="url(#p61283d24ae)" style="fill: none; stroke: #dde3e8; stroke-opacity: 0.85; stroke-width: 0.8; stroke-linecap: square"/>
     </g>
     <g id="line2d_5">
      <defs>
       <path id="mf08ab0f40a" d="M 0 0 
L -3.5 0 
" style="stroke: #68737d; stroke-width: 0.8"/>
      </defs>
      <g>
       <use xlink:href="#mf08ab0f40a" x="58.34" y="345.256" style="fill: #68737d; stroke: #68737d; stroke-width: 0.8"/>
      </g>
     </g>
     <g id="text_4">
      <text style="font-size: 10px; font-family: 'DejaVu Sans'; text-anchor: end; fill: #68737d" x="51.34" y="349.055219" transform="rotate(-0 51.34 349.055219)">0%</text>
     </g>
    </g>
    <g id="ytick_2">
     <g id="line2d_6">
      <path d="M 58.34 298.244148 
L 530.518575 298.244148 
" clip-path="url(#p61283d24ae)" style="fill: none; stroke: #dde3e8; stroke-opacity: 0.85; stroke-width: 0.8; stroke-linecap: square"/>
     </g>
     <g id="line2d_7">
      <g>
       <use xlink:href="#mf08ab0f40a" x="58.34" y="298.244148" style="fill: #68737d; stroke: #68737d; stroke-width: 0.8"/>
      </g>
     </g>
     <g id="text_5">
      <text style="font-size: 10px; font-family: 'DejaVu Sans'; text-anchor: end; fill: #68737d" x="51.34" y="302.043367" transform="rotate(-0 51.34 302.043367)">20%</text>
     </g>
    </g>
    <g id="ytick_3">
     <g id="line2d_8">
      <path d="M 58.34 251.232296 
L 530.518575 251.232296 
" clip-path="url(#p61283d24ae)" style="fill: none; stroke: #dde3e8; stroke-opacity: 0.85; stroke-width: 0.8; stroke-linecap: square"/>
     </g>
     <g id="line2d_9">
      <g>
       <use xlink:href="#mf08ab0f40a" x="58.34" y="251.232296" style="fill: #68737d; stroke: #68737d; stroke-width: 0.8"/>
      </g>
     </g>
     <g id="text_6">
      <text style="font-size: 10px; font-family: 'DejaVu Sans'; text-anchor: end; fill: #68737d" x="51.34" y="255.031515" transform="rotate(-0 51.34 255.031515)">40%</text>
     </g>
    </g>
    <g id="ytick_4">
     <g id="line2d_10">
      <path d="M 58.34 204.220444 
L 530.518575 204.220444 
" clip-path="url(#p61283d24ae)" style="fill: none; stroke: #dde3e8; stroke-opacity: 0.85; stroke-width: 0.8; stroke-linecap: square"/>
     </g>
     <g id="line2d_11">
      <g>
       <use xlink:href="#mf08ab0f40a" x="58.34" y="204.220444" style="fill: #68737d; stroke: #68737d; stroke-width: 0.8"/>
      </g>
     </g>
     <g id="text_7">
      <text style="font-size: 10px; font-family: 'DejaVu Sans'; text-anchor: end; fill: #68737d" x="51.34" y="208.019663" transform="rotate(-0 51.34 208.019663)">60%</text>
     </g>
    </g>
    <g id="ytick_5">
     <g id="line2d_12">
      <path d="M 58.34 157.208593 
L 530.518575 157.208593 
" clip-path="url(#p61283d24ae)" style="fill: none; stroke: #dde3e8; stroke-opacity: 0.85; stroke-width: 0.8; stroke-linecap: square"/>
     </g>
     <g id="line2d_13">
      <g>
       <use xlink:href="#mf08ab0f40a" x="58.34" y="157.208593" style="fill: #68737d; stroke: #68737d; stroke-width: 0.8"/>
      </g>
     </g>
     <g id="text_8">
      <text style="font-size: 10px; font-family: 'DejaVu Sans'; text-anchor: end; fill: #68737d" x="51.34" y="161.007811" transform="rotate(-0 51.34 161.007811)">80%</text>
     </g>
    </g>
    <g id="ytick_6">
     <g id="line2d_14">
      <path d="M 58.34 110.196741 
L 530.518575 110.196741 
" clip-path="url(#p61283d24ae)" style="fill: none; stroke: #dde3e8; stroke-opacity: 0.85; stroke-width: 0.8; stroke-linecap: square"/>
     </g>
     <g id="line2d_15">
      <g>
       <use xlink:href="#mf08ab0f40a" x="58.34" y="110.196741" style="fill: #68737d; stroke: #68737d; stroke-width: 0.8"/>
      </g>
     </g>
     <g id="text_9">
      <text style="font-size: 10px; font-family: 'DejaVu Sans'; text-anchor: end; fill: #68737d" x="51.34" y="113.995959" transform="rotate(-0 51.34 113.995959)">100%</text>
     </g>
    </g>
    <g id="text_10">
     <text style="font-size: 10px; font-family: 'DejaVu Sans'; text-anchor: middle; fill: #17202a" x="16.67125" y="218.324" transform="rotate(-90 16.67125 218.324)">Held-out golden metric</text>
    </g>
   </g>
   <g id="line2d_16">
    <path d="M 79.802663 293.542963 
L 294.429288 147.806222 
L 509.055913 147.806222 
" clip-path="url(#p61283d24ae)" style="fill: none; stroke: #246bce; stroke-width: 2.2; stroke-linecap: square"/>
    <defs>
     <path id="m51a6c77fcf" d="M 0 3.5 
C 0.928211 3.5 1.81853 3.131218 2.474874 2.474874 
C 3.131218 1.81853 3.5 0.928211 3.5 0 
C 3.5 -0.928211 3.131218 -1.81853 2.474874 -2.474874 
C 1.81853 -3.131218 0.928211 -3.5 0 -3.5 
C -0.928211 -3.5 -1.81853 -3.131218 -2.474874 -2.474874 
C -3.131218 -1.81853 -3.5 -0.928211 -3.5 0 
C -3.5 0.928211 -3.131218 1.81853 -2.474874 2.474874 
C -1.81853 3.131218 -0.928211 3.5 0 3.5 
z
" style="stroke: #246bce"/>
    </defs>
    <g clip-path="url(#p61283d24ae)">
     <use xlink:href="#m51a6c77fcf" x="79.802663" y="293.542963" style="fill: #246bce; stroke: #246bce"/>
     <use xlink:href="#m51a6c77fcf" x="294.429288" y="147.806222" style="fill: #246bce; stroke: #246bce"/>
     <use xlink:href="#m51a6c77fcf" x="509.055913" y="147.806222" style="fill: #246bce; stroke: #246bce"/>
    </g>
   </g>
   <g id="line2d_17">
    <path d="M 79.802663 188.549749 
L 294.429288 141.537897 
L 509.055913 143.105037 
" clip-path="url(#p61283d24ae)" style="fill: none; stroke: #148a8a; stroke-width: 2.2; stroke-linecap: square"/>
    <defs>
     <path id="m7ac585e9fd" d="M 0 3.5 
C 0.928211 3.5 1.81853 3.131218 2.474874 2.474874 
C 3.131218 1.81853 3.5 0.928211 3.5 0 
C 3.5 -0.928211 3.131218 -1.81853 2.474874 -2.474874 
C 1.81853 -3.131218 0.928211 -3.5 0 -3.5 
C -0.928211 -3.5 -1.81853 -3.131218 -2.474874 -2.474874 
C -3.131218 -1.81853 -3.5 -0.928211 -3.5 0 
C -3.5 0.928211 -3.131218 1.81853 -2.474874 2.474874 
C -1.81853 3.131218 -0.928211 3.5 0 3.5 
z
" style="stroke: #148a8a"/>
    </defs>
    <g clip-path="url(#p61283d24ae)">
     <use xlink:href="#m7ac585e9fd" x="79.802663" y="188.549749" style="fill: #148a8a; stroke: #148a8a"/>
     <use xlink:href="#m7ac585e9fd" x="294.429288" y="141.537897" style="fill: #148a8a; stroke: #148a8a"/>
     <use xlink:href="#m7ac585e9fd" x="509.055913" y="143.105037" style="fill: #148a8a; stroke: #148a8a"/>
    </g>
   </g>
   <g id="line2d_18">
    <path d="M 79.802663 146.780424 
L 294.429288 154.452758 
L 509.055913 154.452758 
" clip-path="url(#p61283d24ae)" style="fill: none; stroke: #d97706; stroke-width: 2.2; stroke-linecap: square"/>
    <defs>
     <path id="mbd5c2430ee" d="M 0 3.5 
C 0.928211 3.5 1.81853 3.131218 2.474874 2.474874 
C 3.131218 1.81853 3.5 0.928211 3.5 0 
C 3.5 -0.928211 3.131218 -1.81853 2.474874 -2.474874 
C 1.81853 -3.131218 0.928211 -3.5 0 -3.5 
C -0.928211 -3.5 -1.81853 -3.131218 -2.474874 -2.474874 
C -3.131218 -1.81853 -3.5 -0.928211 -3.5 0 
C -3.5 0.928211 -3.131218 1.81853 -2.474874 2.474874 
C -1.81853 3.131218 -0.928211 3.5 0 3.5 
z
" style="stroke: #d97706"/>
    </defs>
    <g clip-path="url(#p61283d24ae)">
     <use xlink:href="#mbd5c2430ee" x="79.802663" y="146.780424" style="fill: #d97706; stroke: #d97706"/>
     <use xlink:href="#mbd5c2430ee" x="294.429288" y="154.452758" style="fill: #d97706; stroke: #d97706"/>
     <use xlink:href="#mbd5c2430ee" x="509.055913" y="154.452758" style="fill: #d97706; stroke: #d97706"/>
    </g>
   </g>
   <g id="line2d_19">
    <path d="M 79.802663 340.554815 
L 294.429288 110.196741 
L 509.055913 110.196741 
" clip-path="url(#p61283d24ae)" style="fill: none; stroke: #7656a8; stroke-width: 2.2; stroke-linecap: square"/>
    <defs>
     <path id="mf2861d716b" d="M 0 3.5 
C 0.928211 3.5 1.81853 3.131218 2.474874 2.474874 
C 3.131218 1.81853 3.5 0.928211 3.5 0 
C 3.5 -0.928211 3.131218 -1.81853 2.474874 -2.474874 
C 1.81853 -3.131218 0.928211 -3.5 0 -3.5 
C -0.928211 -3.5 -1.81853 -3.131218 -2.474874 -2.474874 
C -3.131218 -1.81853 -3.5 -0.928211 -3.5 0 
C -3.5 0.928211 -3.131218 1.81853 -2.474874 2.474874 
C -1.81853 3.131218 -0.928211 3.5 0 3.5 
z
" style="stroke: #7656a8"/>
    </defs>
    <g clip-path="url(#p61283d24ae)">
     <use xlink:href="#mf2861d716b" x="79.802663" y="340.554815" style="fill: #7656a8; stroke: #7656a8"/>
     <use xlink:href="#mf2861d716b" x="294.429288" y="110.196741" style="fill: #7656a8; stroke: #7656a8"/>
     <use xlink:href="#mf2861d716b" x="509.055913" y="110.196741" style="fill: #7656a8; stroke: #7656a8"/>
    </g>
   </g>
   <g id="patch_3">
    <path d="M 58.34 345.256 
L 58.34 91.392 
" style="fill: none; stroke: #dde3e8; stroke-width: 0.8; stroke-linejoin: miter; stroke-linecap: square"/>
   </g>
   <g id="patch_4">
    <path d="M 58.34 345.256 
L 530.518575 345.256 
" style="fill: none; stroke: #dde3e8; stroke-width: 0.8; stroke-linejoin: miter; stroke-linecap: square"/>
   </g>
   <g id="text_11">
    <text style="font-size: 8px; font-family: 'DejaVu Sans'; text-anchor: middle; fill: #246bce" x="79.802663" y="287.666481" transform="rotate(-0 79.802663 287.666481)">22%</text>
   </g>
   <g id="text_12">
    <text style="font-size: 8px; font-family: 'DejaVu Sans'; text-anchor: middle; fill: #246bce" x="294.429288" y="141.929741" transform="rotate(-0 294.429288 141.929741)">84%</text>
   </g>
   <g id="text_13">
    <text style="font-size: 8px; font-family: 'DejaVu Sans'; text-anchor: middle; fill: #246bce" x="509.055913" y="141.929741" transform="rotate(-0 509.055913 141.929741)">84%</text>
   </g>
   <g id="text_14">
    <text style="font-size: 8px; font-family: 'DejaVu Sans'; text-anchor: middle; fill: #148a8a" x="79.802663" y="182.673267" transform="rotate(-0 79.802663 182.673267)">67%</text>
   </g>
   <g id="text_15">
    <text style="font-size: 8px; font-family: 'DejaVu Sans'; text-anchor: middle; fill: #148a8a" x="294.429288" y="135.661415" transform="rotate(-0 294.429288 135.661415)">87%</text>
   </g>
   <g id="text_16">
    <text style="font-size: 8px; font-family: 'DejaVu Sans'; text-anchor: middle; fill: #148a8a" x="509.055913" y="137.228556" transform="rotate(-0 509.055913 137.228556)">86%</text>
   </g>
   <g id="text_17">
    <text style="font-size: 8px; font-family: 'DejaVu Sans'; text-anchor: middle; fill: #d97706" x="79.802663" y="140.903942" transform="rotate(-0 79.802663 140.903942)">84%</text>
   </g>
   <g id="text_18">
    <text style="font-size: 8px; font-family: 'DejaVu Sans'; text-anchor: middle; fill: #d97706" x="294.429288" y="148.576276" transform="rotate(-0 294.429288 148.576276)">81%</text>
   </g>
   <g id="text_19">
    <text style="font-size: 8px; font-family: 'DejaVu Sans'; text-anchor: middle; fill: #d97706" x="509.055913" y="148.576276" transform="rotate(-0 509.055913 148.576276)">81%</text>
   </g>
   <g id="text_20">
    <text style="font-size: 8px; font-family: 'DejaVu Sans'; text-anchor: middle; fill: #7656a8" x="79.802663" y="353.483074" transform="rotate(-0 79.802663 353.483074)">2%</text>
   </g>
   <g id="text_21">
    <text style="font-size: 8px; font-family: 'DejaVu Sans'; text-anchor: middle; fill: #7656a8" x="294.429288" y="123.125" transform="rotate(-0 294.429288 123.125)">100%</text>
   </g>
   <g id="text_22">
    <text style="font-size: 8px; font-family: 'DejaVu Sans'; text-anchor: middle; fill: #7656a8" x="509.055913" y="123.125" transform="rotate(-0 509.055913 123.125)">100%</text>
   </g>
   <g id="text_23">
    <text style="font-weight: 700; font-size: 13px; font-family: 'DejaVu Sans'; text-anchor: start; fill: #17202a" x="58.34" y="85.392" transform="rotate(-0 58.34 85.392)">Model progression on the same 50 scenarios</text>
   </g>
   <g id="legend_1">
    <g id="line2d_20">
     <path d="M 343.862325 321.84975 
L 351.862325 321.84975 
L 359.862325 321.84975 
" style="fill: none; stroke: #246bce; stroke-width: 2.2; stroke-linecap: square"/>
     <g>
      <use xlink:href="#m51a6c77fcf" x="351.862325" y="321.84975" style="fill: #246bce; stroke: #246bce"/>
     </g>
    </g>
    <g id="text_24">
     <text style="font-size: 8px; font-family: 'DejaVu Sans'; text-anchor: start" x="366.262325" y="324.64975" transform="rotate(-0 366.262325 324.64975)">Top-1 agreement</text>
    </g>
    <g id="line2d_21">
     <path d="M 343.862325 333.59225 
L 351.862325 333.59225 
L 359.862325 333.59225 
" style="fill: none; stroke: #148a8a; stroke-width: 2.2; stroke-linecap: square"/>
     <g>
      <use xlink:href="#m7ac585e9fd" x="351.862325" y="333.59225" style="fill: #148a8a; stroke: #148a8a"/>
     </g>
    </g>
    <g id="text_25">
     <text style="font-size: 8px; font-family: 'DejaVu Sans'; text-anchor: start" x="366.262325" y="336.39225" transform="rotate(-0 366.262325 336.39225)">Top-3 recall</text>
    </g>
    <g id="line2d_22">
     <path d="M 450.137325 321.84975 
L 458.137325 321.84975 
L 466.137325 321.84975 
" style="fill: none; stroke: #d97706; stroke-width: 2.2; stroke-linecap: square"/>
     <g>
      <use xlink:href="#mbd5c2430ee" x="458.137325" y="321.84975" style="fill: #d97706; stroke: #d97706"/>
     </g>
    </g>
    <g id="text_26">
     <text style="font-size: 8px; font-family: 'DejaVu Sans'; text-anchor: start" x="472.537325" y="324.64975" transform="rotate(-0 472.537325 324.64975)">Reward ratio</text>
    </g>
    <g id="line2d_23">
     <path d="M 450.137325 333.59225 
L 458.137325 333.59225 
L 466.137325 333.59225 
" style="fill: none; stroke: #7656a8; stroke-width: 2.2; stroke-linecap: square"/>
     <g>
      <use xlink:href="#mf2861d716b" x="458.137325" y="333.59225" style="fill: #7656a8; stroke: #7656a8"/>
     </g>
    </g>
    <g id="text_27">
     <text style="font-size: 8px; font-family: 'DejaVu Sans'; text-anchor: start" x="472.537325" y="336.39225" transform="rotate(-0 472.537325 336.39225)">Strict JSON</text>
    </g>
   </g>
  </g>
  <g id="axes_2">
   <g id="patch_5">
    <path d="M 611.818352 345.256 
L 916.44969 345.256 
L 916.44969 91.392 
L 611.818352 91.392 
z
" style="fill: #ffffff"/>
   </g>
   <g id="matplotlib.axis_3">
    <g id="xtick_4">
     <g id="line2d_24">
      <path d="M 634.552034 345.256 
L 634.552034 91.392 
" clip-path="url(#p1d75899c6e)" style="fill: none; stroke: #dde3e8; stroke-opacity: 0.85; stroke-width: 0.8; stroke-linecap: square"/>
     </g>
     <g id="line2d_25">
      <g>
       <use xlink:href="#md932478447" x="634.552034" y="345.256" style="fill: #68737d; stroke: #68737d; stroke-width: 0.8"/>
      </g>
     </g>
     <g id="text_28">
      <text style="font-size: 10px; font-family: 'DejaVu Sans'; text-anchor: middle; fill: #68737d" x="634.552034" y="359.854437" transform="rotate(-0 634.552034 359.854437)">40%</text>
     </g>
    </g>
    <g id="xtick_5">
     <g id="line2d_26">
      <path d="M 680.019398 345.256 
L 680.019398 91.392 
" clip-path="url(#p1d75899c6e)" style="fill: none; stroke: #dde3e8; stroke-opacity: 0.85; stroke-width: 0.8; stroke-linecap: square"/>
     </g>
     <g id="line2d_27">
      <g>
       <use xlink:href="#md932478447" x="680.019398" y="345.256" style="fill: #68737d; stroke: #68737d; stroke-width: 0.8"/>
      </g>
     </g>
     <g id="text_29">
      <text style="font-size: 10px; font-family: 'DejaVu Sans'; text-anchor: middle; fill: #68737d" x="680.019398" y="359.854437" transform="rotate(-0 680.019398 359.854437)">50%</text>
     </g>
    </g>
    <g id="xtick_6">
     <g id="line2d_28">
      <path d="M 725.486762 345.256 
L 725.486762 91.392 
" clip-path="url(#p1d75899c6e)" style="fill: none; stroke: #dde3e8; stroke-opacity: 0.85; stroke-width: 0.8; stroke-linecap: square"/>
     </g>
     <g id="line2d_29">
      <g>
       <use xlink:href="#md932478447" x="725.486762" y="345.256" style="fill: #68737d; stroke: #68737d; stroke-width: 0.8"/>
      </g>
     </g>
     <g id="text_30">
      <text style="font-size: 10px; font-family: 'DejaVu Sans'; text-anchor: middle; fill: #68737d" x="725.486762" y="359.854437" transform="rotate(-0 725.486762 359.854437)">60%</text>
     </g>
    </g>
    <g id="xtick_7">
     <g id="line2d_30">
      <path d="M 770.954126 345.256 
L 770.954126 91.392 
" clip-path="url(#p1d75899c6e)" style="fill: none; stroke: #dde3e8; stroke-opacity: 0.85; stroke-width: 0.8; stroke-linecap: square"/>
     </g>
     <g id="line2d_31">
      <g>
       <use xlink:href="#md932478447" x="770.954126" y="345.256" style="fill: #68737d; stroke: #68737d; stroke-width: 0.8"/>
      </g>
     </g>
     <g id="text_31">
      <text style="font-size: 10px; font-family: 'DejaVu Sans'; text-anchor: middle; fill: #68737d" x="770.954126" y="359.854437" transform="rotate(-0 770.954126 359.854437)">70%</text>
     </g>
    </g>
    <g id="xtick_8">
     <g id="line2d_32">
      <path d="M 816.42149 345.256 
L 816.42149 91.392 
" clip-path="url(#p1d75899c6e)" style="fill: none; stroke: #dde3e8; stroke-opacity: 0.85; stroke-width: 0.8; stroke-linecap: square"/>
     </g>
     <g id="line2d_33">
      <g>
       <use xlink:href="#md932478447" x="816.42149" y="345.256" style="fill: #68737d; stroke: #68737d; stroke-width: 0.8"/>
      </g>
     </g>
     <g id="text_32">
      <text style="font-size: 10px; font-family: 'DejaVu Sans'; text-anchor: middle; fill: #68737d" x="816.42149" y="359.854437" transform="rotate(-0 816.42149 359.854437)">80%</text>
     </g>
    </g>
    <g id="xtick_9">
     <g id="line2d_34">
      <path d="M 861.888854 345.256 
L 861.888854 91.392 
" clip-path="url(#p1d75899c6e)" style="fill: none; stroke: #dde3e8; stroke-opacity: 0.85; stroke-width: 0.8; stroke-linecap: square"/>
     </g>
     <g id="line2d_35">
      <g>
       <use xlink:href="#md932478447" x="861.888854" y="345.256" style="fill: #68737d; stroke: #68737d; stroke-width: 0.8"/>
      </g>
     </g>
     <g id="text_33">
      <text style="font-size: 10px; font-family: 'DejaVu Sans'; text-anchor: middle; fill: #68737d" x="861.888854" y="359.854437" transform="rotate(-0 861.888854 359.854437)">90%</text>
     </g>
    </g>
    <g id="xtick_10">
     <g id="line2d_36">
      <path d="M 907.356218 345.256 
L 907.356218 91.392 
" clip-path="url(#p1d75899c6e)" style="fill: none; stroke: #dde3e8; stroke-opacity: 0.85; stroke-width: 0.8; stroke-linecap: square"/>
     </g>
     <g id="line2d_37">
      <g>
       <use xlink:href="#md932478447" x="907.356218" y="345.256" style="fill: #68737d; stroke: #68737d; stroke-width: 0.8"/>
      </g>
     </g>
     <g id="text_34">
      <text style="font-size: 10px; font-family: 'DejaVu Sans'; text-anchor: middle; fill: #68737d" x="907.356218" y="359.854437" transform="rotate(-0 907.356218 359.854437)">100%</text>
     </g>
    </g>
    <g id="text_35">
     <text style="font-size: 10px; font-family: 'DejaVu Sans'; text-anchor: middle; fill: #17202a" x="764.134021" y="373.532562" transform="rotate(-0 764.134021 373.532562)">Teacher agreement</text>
    </g>
   </g>
   <g id="matplotlib.axis_4">
    <g id="ytick_7">
     <g id="line2d_38">
      <g>
       <use xlink:href="#mf08ab0f40a" x="611.818352" y="102.931273" style="fill: #68737d; stroke: #68737d; stroke-width: 0.8"/>
      </g>
     </g>
     <g id="text_36">
      <text style="font-size: 10px; font-family: 'DejaVu Sans'; text-anchor: end; fill: #68737d" x="604.818352" y="106.730491" transform="rotate(-0 604.818352 106.730491)">Top-1</text>
     </g>
    </g>
    <g id="ytick_8">
     <g id="line2d_39">
      <g>
       <use xlink:href="#mf08ab0f40a" x="611.818352" y="218.324" style="fill: #68737d; stroke: #68737d; stroke-width: 0.8"/>
      </g>
     </g>
     <g id="text_37">
      <text style="font-size: 10px; font-family: 'DejaVu Sans'; text-anchor: end; fill: #68737d" x="604.818352" y="222.123219" transform="rotate(-0 604.818352 222.123219)">Top-3</text>
     </g>
    </g>
    <g id="ytick_9">
     <g id="line2d_40">
      <g>
       <use xlink:href="#mf08ab0f40a" x="611.818352" y="333.716727" style="fill: #68737d; stroke: #68737d; stroke-width: 0.8"/>
      </g>
     </g>
     <g id="text_38">
      <text style="font-size: 10px; font-family: 'DejaVu Sans'; text-anchor: end; fill: #68737d" x="604.818352" y="337.515946" transform="rotate(-0 604.818352 337.515946)">Pairwise</text>
     </g>
    </g>
   </g>
   <g id="line2d_41">
    <path d="M 675.472661 102.931273 
L 880.075799 102.931273 
" clip-path="url(#p1d75899c6e)" style="fill: none; stroke: #dde3e8; stroke-width: 5; stroke-linecap: round"/>
   </g>
   <g id="line2d_42">
    <path d="M 765.649448 218.324 
L 835.366376 218.324 
" clip-path="url(#p1d75899c6e)" style="fill: none; stroke: #dde3e8; stroke-width: 5; stroke-linecap: round"/>
   </g>
   <g id="line2d_43">
    <path d="M 798.554179 333.716727 
L 872.087183 333.716727 
" clip-path="url(#p1d75899c6e)" style="fill: none; stroke: #dde3e8; stroke-width: 5; stroke-linecap: round"/>
   </g>
   <g id="patch_6">
    <path d="M 611.818352 345.256 
L 611.818352 91.392 
" style="fill: none; stroke: #dde3e8; stroke-width: 0.8; stroke-linejoin: miter; stroke-linecap: square"/>
   </g>
   <g id="patch_7">
    <path d="M 611.818352 345.256 
L 916.44969 345.256 
" style="fill: none; stroke: #dde3e8; stroke-width: 0.8; stroke-linejoin: miter; stroke-linecap: square"/>
   </g>
   <g id="PathCollection_1">
    <defs>
     <path id="m5032ddebcc" d="M 0 4.1833 
C 1.109424 4.1833 2.173559 3.742521 2.95804 2.95804 
C 3.742521 2.173559 4.1833 1.109424 4.1833 0 
C 4.1833 -1.109424 3.742521 -2.173559 2.95804 -2.95804 
C 2.173559 -3.742521 1.109424 -4.1833 0 -4.1833 
C -1.109424 -4.1833 -2.173559 -3.742521 -2.95804 -2.95804 
C -3.742521 -2.173559 -4.1833 -1.109424 -4.1833 0 
C -4.1833 1.109424 -3.742521 2.173559 -2.95804 2.95804 
C -2.173559 3.742521 -1.109424 4.1833 0 4.1833 
z
" style="stroke: #98a5b1"/>
    </defs>
    <g clip-path="url(#p1d75899c6e)">
     <use xlink:href="#m5032ddebcc" x="675.472661" y="102.931273" style="fill: #98a5b1; stroke: #98a5b1"/>
    </g>
   </g>
   <g id="PathCollection_2">
    <defs>
     <path id="m0dc96a3cfb" d="M 0 4.1833 
C 1.109424 4.1833 2.173559 3.742521 2.95804 2.95804 
C 3.742521 2.173559 4.1833 1.109424 4.1833 0 
C 4.1833 -1.109424 3.742521 -2.173559 2.95804 -2.95804 
C 2.173559 -3.742521 1.109424 -4.1833 0 -4.1833 
C -1.109424 -4.1833 -2.173559 -3.742521 -2.95804 -2.95804 
C -3.742521 -2.173559 -4.1833 -1.109424 -4.1833 0 
C -4.1833 1.109424 -3.742521 2.173559 -2.95804 2.95804 
C -2.173559 3.742521 -1.109424 4.1833 0 4.1833 
z
" style="stroke: #7656a8"/>
    </defs>
    <g clip-path="url(#p1d75899c6e)">
     <use xlink:href="#m0dc96a3cfb" x="880.075799" y="102.931273" style="fill: #7656a8; stroke: #7656a8"/>
    </g>
   </g>
   <g id="text_39">
    <text style="font-size: 8px; font-family: 'DejaVu Sans'; text-anchor: end; fill: #68737d" x="664.10582" y="105.138773" transform="rotate(-0 664.10582 105.138773)">49%</text>
   </g>
   <g id="text_40">
    <text style="font-weight: 700; font-size: 8px; font-family: 'DejaVu Sans'; text-anchor: start; fill: #7656a8" x="891.44264" y="105.138773" transform="rotate(-0 891.44264 105.138773)">94%</text>
   </g>
   <g id="PathCollection_3">
    <g clip-path="url(#p1d75899c6e)">
     <use xlink:href="#m5032ddebcc" x="765.649448" y="218.324" style="fill: #98a5b1; stroke: #98a5b1"/>
    </g>
   </g>
   <g id="PathCollection_4">
    <g clip-path="url(#p1d75899c6e)">
     <use xlink:href="#m0dc96a3cfb" x="835.366376" y="218.324" style="fill: #7656a8; stroke: #7656a8"/>
    </g>
   </g>
   <g id="text_41">
    <text style="font-size: 8px; font-family: 'DejaVu Sans'; text-anchor: end; fill: #68737d" x="754.282607" y="220.5315" transform="rotate(-0 754.282607 220.5315)">69%</text>
   </g>
   <g id="text_42">
    <text style="font-weight: 700; font-size: 8px; font-family: 'DejaVu Sans'; text-anchor: start; fill: #7656a8" x="846.733217" y="220.5315" transform="rotate(-0 846.733217 220.5315)">84%</text>
   </g>
   <g id="PathCollection_5">
    <g clip-path="url(#p1d75899c6e)">
     <use xlink:href="#m5032ddebcc" x="798.554179" y="333.716727" style="fill: #98a5b1; stroke: #98a5b1"/>
    </g>
   </g>
   <g id="PathCollection_6">
    <g clip-path="url(#p1d75899c6e)">
     <use xlink:href="#m0dc96a3cfb" x="872.087183" y="333.716727" style="fill: #7656a8; stroke: #7656a8"/>
    </g>
   </g>
   <g id="text_43">
    <text style="font-size: 8px; font-family: 'DejaVu Sans'; text-anchor: end; fill: #68737d" x="787.187338" y="335.924227" transform="rotate(-0 787.187338 335.924227)">76%</text>
   </g>
   <g id="text_44">
    <text style="font-weight: 700; font-size: 8px; font-family: 'DejaVu Sans'; text-anchor: start; fill: #7656a8" x="883.454024" y="335.924227" transform="rotate(-0 883.454024 335.924227)">92%</text>
   </g>
   <g id="text_45">
    <text style="font-weight: 700; font-size: 13px; font-family: 'DejaVu Sans'; text-anchor: start; fill: #17202a" x="611.818352" y="85.392" transform="rotate(-0 611.818352 85.392)">Reward calibration (separate 200-scenario split)</text>
   </g>
   <g id="legend_2">
    <g id="PathCollection_7">
     <g>
      <use xlink:href="#m5032ddebcc" x="643.003605" y="274.585312" style="fill: #98a5b1; stroke: #98a5b1"/>
     </g>
    </g>
    <g id="text_46">
     <text style="font-size: 10px; font-family: 'DejaVu Sans'; text-anchor: start" x="661.003605" y="277.210312" transform="rotate(-0 661.003605 277.210312)">Supplied</text>
    </g>
    <g id="PathCollection_8">
     <g>
      <use xlink:href="#m0dc96a3cfb" x="643.003605" y="289.263437" style="fill: #7656a8; stroke: #7656a8"/>
     </g>
    </g>
    <g id="text_47">
     <text style="font-size: 10px; font-family: 'DejaVu Sans'; text-anchor: start" x="661.003605" y="291.888437" transform="rotate(-0 661.003605 291.888437)">Calibrated</text>
    </g>
   </g>
  </g>
  <g id="text_48">
   <text style="font-weight: 700; font-size: 18px; font-family: 'DejaVu Sans'; text-anchor: start" x="16.56" y="20.877187" transform="rotate(-0 16.56 20.877187)">SFT delivers the step-change; GRPO confirms the plateau</text>
  </g>
  <g id="text_49">
   <text style="font-size: 8px; font-family: 'DejaVu Sans'; text-anchor: start; fill: #68737d" x="7.2" y="409.77305" transform="rotate(-0 7.2 409.77305)">Left: frozen golden summaries; the golden set was evaluated only after choices were frozen. Right: calibration split, shown separately because its scores are not comparable to golden.</text>
  </g>
 </g>
 <defs>
  <clipPath id="p61283d24ae">
   <rect x="58.34" y="91.392" width="472.178575" height="253.864"/>
  </clipPath>
  <clipPath id="p1d75899c6e">
   <rect x="611.818352" y="91.392" width="304.631339" height="253.864"/>
  </clipPath>
 </defs>
</svg>
